<?xml version="1.0" encoding="UTF-8"?>
<!DOCTYPE svg PUBLIC "-//W3C//DTD SVG 1.1//EN" "http://www.w3.org/Graphics/SVG/1.1/DTD/svg11.dtd"><svg version="1.1" viewBox="0 0 21590 27940" preserveAspectRatio="xMidYMid" fill-rule="evenodd" xmlns="http://www.w3.org/2000/svg" xmlns:xlink="http://www.w3.org/1999/xlink"><g visibility="visible" id="Default" class="Master_Slide"><g style="stroke:none;fill:none"><rect x="0" y="0" width="21590" height="27940"/></g></g><g visibility="visible" id="page1" class="Slide"><g class="Drawing"><g><g style="stroke:rgb(255,255,255);stroke-opacity:0.501960784313726;fill:rgb(207,231,229);fill-opacity:0.501960784313726"><path d="M 3032,16621 C 2270,16621 1508,17383 1508,18145 L 1508,24241 C 1508,25003 2270,25766 3032,25766 L 13446,25766 C 14208,25766 14971,25003 14971,24241 L 14971,18145 C 14971,17383 14208,16621 13446,16621 L 3032,16621 Z M 1508,16621 L 1508,16621 Z M 14971,25766 L 14971,25766 Z"/></g><g style="stroke:none;fill:rgb(207,231,229)"/><g style="stroke:rgb(128,128,128);fill:none"><path style="fill:none" d="M 3032,16621 C 2270,16621 1508,17383 1508,18145 L 1508,24241 C 1508,25003 2270,25766 3032,25766 L 13446,25766 C 14208,25766 14971,25003 14971,24241 L 14971,18145 C 14971,17383 14208,16621 13446,16621 L 3032,16621"/><path style="fill:none" d="M 1508,16621 L 1508,16621"/><path style="fill:none" d="M 14971,25766 L 14971,25766"/></g><g style="stroke:none;fill:none"><rect x="1508" y="16621" width="13463" height="9145"/></g></g></g><g class="Drawing"><g><g style="stroke:none;fill:rgb(207,231,229)"><path d="M 5455,18747 L 3432,19924 3412,17510 5455,18747 Z M 5445,17492 L 5445,17492 Z M 3432,19924 L 3432,19924 Z"/></g><g style="stroke:rgb(0,0,255);stroke-width:102;stroke-linejoin:round;fill:none"><path style="fill:none" d="M 5455,18747 L 3432,19924 3412,17510 5455,18747"/></g><g style="stroke:none;fill:none"><rect x="5445" y="17493" width="2414" height="2033"/></g></g></g><g class="Drawing"><g><g style="stroke:none;fill:rgb(207,231,229)"><path d="M 3158,23351 L 4968,23351 5572,24050 4968,24749 3158,24749 3761,24050 3158,23351 Z M 3158,23351 L 3158,23351 Z M 5572,24749 L 5572,24749 Z"/></g><g style="stroke:rgb(255,0,0);stroke-width:51;stroke-linejoin:round;fill:none"><path style="fill:none" d="M 3158,23351 L 4968,23351 5572,24050 4968,24749 3158,24749 3761,24050 3158,23351"/></g><g style="stroke:none;fill:none"><rect x="3159" y="23352" width="2414" height="1398"/></g></g></g><g class="Drawing"><g><g style="stroke:none;fill:rgb(207,231,229)"><path d="M 12695,21450 L 10671,22608 10651,20194 12695,21450 Z M 12684,20176 L 12684,20176 Z M 10671,22608 L 10671,22608 Z"/></g><g style="stroke:rgb(0,0,255);stroke-width:51;stroke-linejoin:round;fill:none"><path style="fill:none" d="M 12695,21450 L 10671,22608 10651,20194 12695,21450"/></g><g style="stroke:none;fill:none"><rect x="12684" y="20177" width="2414" height="2033"/></g></g></g><g class="Drawing"><g><g style="stroke:rgb(0,0,0);stroke-width:51;stroke-linejoin:round;fill:none"><path style="fill:none" d="M 5454,18697 L 9242,18697 9242,20192 10195,20192"/></g><g style="stroke:none;fill:rgb(0,0,0)"><path d="M 10652,20192 L 10081,20002 10081,20383 10652,20192 Z"/></g></g></g><g class="Drawing"><g><g style="stroke:rgb(0,0,0);stroke-width:51;stroke-linejoin:round;fill:none"><path style="fill:none" d="M 5572,24050 L 8377,24050 8377,22525 10198,22525"/></g><g style="stroke:none;fill:rgb(0,0,0)"><path d="M 10655,22525 L 10084,22335 10084,22716 10655,22525 Z"/></g></g></g><g class="Drawing"><g><g style="stroke:rgb(0,0,0);stroke-width:51;stroke-linejoin:round;fill:none"><path style="fill:none" d="M 12684,21447 L 13903,21447"/></g><g style="stroke:none;fill:rgb(0,0,0)"><path d="M 13831,21412 L 13841,21378 13858,21343 13883,21312 13914,21288 13948,21271 13983,21261 14018,21257 14052,21261 14088,21271 14122,21288 14152,21312 14177,21343 14194,21378 14205,21412 14208,21448 14205,21482 14194,21518 14177,21551 14152,21582 14122,21606 14088,21623 14052,21633 14018,21638 13983,21633 13948,21623 13914,21606 13883,21582 13858,21551 13841,21518 13831,21482 13827,21448 13831,21412 Z"/></g></g></g><g class="Drawing"><g><g style="stroke:rgb(0,0,0);stroke-width:51;stroke-linejoin:round;fill:none"><path style="fill:none" d="M 2382,17891 L 3017,17891"/></g><g style="stroke:none;fill:rgb(0,0,0)"><path d="M 2454,17926 L 2444,17960 2427,17995 2402,18026 2371,18050 2337,18067 2302,18077 2267,18082 2233,18077 2197,18067 2163,18050 2133,18026 2108,17995 2091,17960 2080,17926 2077,17890 2080,17856 2091,17820 2108,17787 2133,17756 2163,17732 2197,17715 2233,17705 2267,17701 2302,17705 2337,17715 2371,17732 2402,17756 2427,17787 2444,17820 2454,17856 2458,17890 2454,17926 Z"/><path d="M 3474,17891 L 2903,17701 2903,18082 3474,17891 Z"/></g></g></g><g class="Drawing"><g><g style="stroke:rgb(0,0,0);stroke-width:51;stroke-linejoin:round;fill:none"><path style="fill:none" d="M 2321,19542 L 2956,19542"/></g><g style="stroke:none;fill:rgb(0,0,0)"><path d="M 2393,19577 L 2383,19611 2366,19646 2341,19677 2310,19701 2276,19718 2241,19728 2206,19733 2172,19728 2136,19718 2102,19701 2072,19677 2047,19646 2030,19611 2019,19577 2016,19541 2019,19507 2030,19471 2047,19438 2072,19407 2102,19383 2136,19366 2172,19356 2206,19352 2241,19356 2276,19366 2310,19383 2341,19407 2366,19438 2383,19471 2393,19507 2397,19541 2393,19577 Z"/><path d="M 3413,19542 L 2842,19352 2842,19733 3413,19542 Z"/></g></g></g></g></svg>